{"asset":{"version":"2.0","generator":"THREE.GLTFExporter"},"scenes":[{"nodes":[0],"name":"AuxScene"}],"scene":0,"nodes":[{"mesh":0}],"bufferViews":[{"buffer":0,"byteOffset":0,"byteLength":18552,"target":34962,"byteStride":12},{"buffer":0,"byteOffset":18552,"byteLength":18552,"target":34962,"byteStride":12},{"buffer":0,"byteOffset":37104,"byteLength":18552,"target":34962,"byteStride":12},{"buffer":0,"byteOffset":55656,"byteLength":10632,"target":34963}],"buffers":[{"byteLength":66288,"uri":"data:application/octet-stream;base64,"}],"accessors":[{"bufferView":0,"componentType":5126,"count":1546,"max":[0.27419355511665344,0.4677419364452362,0.5],"min":[-0.27419355511665344,-0.4677419364452362,-0.5],"type":"VEC3"},{"bufferView":1,"componentType":5126,"count":1546,"max":[1,1,1],"min":[-1,-1,-1],"type":"VEC3"},{"bufferView":2,"componentType":5126,"count":1546,"max":[1,0.9725490212440491,0.7333333492279053],"min":[0,0,0],"type":"VEC3"},{"bufferView":3,"componentType":5125,"count":2658,"max":[1545],"min":[0],"type":"SCALAR"}],"materials":[{"pbrMetallicRoughness":{"metallicFactor":1,"roughnessFactor":1}}],"meshes":[{"primitives":[{"mode":4,"attributes":{"POSITION":0,"NORMAL":1,"COLOR_0":2},"indices":3,"material":0}]}]}