{"asset":{"version":"2.0","generator":"THREE.GLTFExporter"},"scenes":[{"nodes":[0],"name":"AuxScene"}],"scene":0,"nodes":[{"mesh":0}],"bufferViews":[{"buffer":0,"byteOffset":0,"byteLength":101232,"target":34962,"byteStride":12},{"buffer":0,"byteOffset":101232,"byteLength":101232,"target":34962,"byteStride":12},{"buffer":0,"byteOffset":202464,"byteLength":101232,"target":34962,"byteStride":12},{"buffer":0,"byteOffset":303696,"byteLength":56688,"target":34963}],"buffers":[{"byteLength":360384,"uri":"data:application/octet-stream;base64,"}],"accessors":[{"bufferView":0,"componentType":5126,"count":8436,"max":[0.3030303120613098,0.5,0.5],"min":[-0.3030303120613098,-0.5,-0.5],"type":"VEC3"},{"bufferView":1,"componentType":5126,"count":8436,"max":[1,1,1],"min":[-1,-1,-1],"type":"VEC3"},{"bufferView":2,"componentType":5126,"count":8436,"max":[1,1,1],"min":[0,0,0],"type":"VEC3"},{"bufferView":3,"componentType":5125,"count":14172,"max":[8435],"min":[0],"type":"SCALAR"}],"materials":[{"pbrMetallicRoughness":{"metallicFactor":1,"roughnessFactor":1}}],"meshes":[{"primitives":[{"mode":4,"attributes":{"POSITION":0,"NORMAL":1,"COLOR_0":2},"indices":3,"material":0}]}]}