{"asset":{"version":"2.0","generator":"THREE.GLTFExporter"},"scenes":[{"nodes":[0],"name":"AuxScene"}],"scene":0,"nodes":[{"mesh":0}],"bufferViews":[{"buffer":0,"byteOffset":0,"byteLength":15624,"target":34962,"byteStride":12},{"buffer":0,"byteOffset":15624,"byteLength":15624,"target":34962,"byteStride":12},{"buffer":0,"byteOffset":31248,"byteLength":15624,"target":34962,"byteStride":12},{"buffer":0,"byteOffset":46872,"byteLength":8952,"target":34963}],"buffers":[{"byteLength":55824,"uri":"data:application/octet-stream;base64,"}],"accessors":[{"bufferView":0,"componentType":5126,"count":1302,"max":[0.2068965584039688,0.5,0.3448275923728943],"min":[-0.2068965584039688,-0.5,-0.3448275923728943],"type":"VEC3"},{"bufferView":1,"componentType":5126,"count":1302,"max":[1,1,1],"min":[-1,-1,-1],"type":"VEC3"},{"bufferView":2,"componentType":5126,"count":1302,"max":[0.9960784316062927,0.9725490212440491,0.7529411911964417],"min":[0,0,0],"type":"VEC3"},{"bufferView":3,"componentType":5125,"count":2238,"max":[1301],"min":[0],"type":"SCALAR"}],"materials":[{"pbrMetallicRoughness":{"metallicFactor":1,"roughnessFactor":1}}],"meshes":[{"primitives":[{"mode":4,"attributes":{"POSITION":0,"NORMAL":1,"COLOR_0":2},"indices":3,"material":0}]}]}