{"asset":{"version":"2.0","generator":"THREE.GLTFExporter"},"scenes":[{"nodes":[0],"name":"AuxScene"}],"scene":0,"nodes":[{"mesh":0}],"bufferViews":[{"buffer":0,"byteOffset":0,"byteLength":14544,"target":34962,"byteStride":12},{"buffer":0,"byteOffset":14544,"byteLength":14544,"target":34962,"byteStride":12},{"buffer":0,"byteOffset":29088,"byteLength":14544,"target":34962,"byteStride":12},{"buffer":0,"byteOffset":43632,"byteLength":8160,"target":34963}],"buffers":[{"byteLength":51792,"uri":"data:application/octet-stream;base64,"}],"accessors":[{"bufferView":0,"componentType":5126,"count":1212,"max":[0.2777777910232544,0.5,0.2777777910232544],"min":[-0.2777777910232544,-0.5,-0.2777777910232544],"type":"VEC3"},{"bufferView":1,"componentType":5126,"count":1212,"max":[1,1,1],"min":[-1,-1,-1],"type":"VEC3"},{"bufferView":2,"componentType":5126,"count":1212,"max":[1,1,1],"min":[0,0,0],"type":"VEC3"},{"bufferView":3,"componentType":5125,"count":2040,"max":[1211],"min":[0],"type":"SCALAR"}],"materials":[{"pbrMetallicRoughness":{"metallicFactor":1,"roughnessFactor":1}}],"meshes":[{"primitives":[{"mode":4,"attributes":{"POSITION":0,"NORMAL":1,"COLOR_0":2},"indices":3,"material":0}]}]}