{"asset":{"version":"2.0","generator":"THREE.GLTFExporter"},"scenes":[{"nodes":[0],"name":"AuxScene"}],"scene":0,"nodes":[{"mesh":0}],"bufferViews":[{"buffer":0,"byteOffset":0,"byteLength":28536,"target":34962,"byteStride":12},{"buffer":0,"byteOffset":28536,"byteLength":28536,"target":34962,"byteStride":12},{"buffer":0,"byteOffset":57072,"byteLength":28536,"target":34962,"byteStride":12},{"buffer":0,"byteOffset":85608,"byteLength":16488,"target":34963}],"buffers":[{"byteLength":102096,"uri":"data:application/octet-stream;base64,"}],"accessors":[{"bufferView":0,"componentType":5126,"count":2378,"max":[0.43103447556495667,0.5,0.36206895112991333],"min":[-0.43103447556495667,-0.5,-0.36206895112991333],"type":"VEC3"},{"bufferView":1,"componentType":5126,"count":2378,"max":[1,1,1],"min":[-1,-1,-1],"type":"VEC3"},{"bufferView":2,"componentType":5126,"count":2378,"max":[0.9960784316062927,0.6941176652908325,0.7176470756530762],"min":[0,0,0],"type":"VEC3"},{"bufferView":3,"componentType":5125,"count":4122,"max":[2377],"min":[0],"type":"SCALAR"}],"materials":[{"pbrMetallicRoughness":{"metallicFactor":1,"roughnessFactor":1}}],"meshes":[{"primitives":[{"mode":4,"attributes":{"POSITION":0,"NORMAL":1,"COLOR_0":2},"indices":3,"material":0}]}]}