{"asset":{"version":"2.0","generator":"THREE.GLTFExporter"},"scenes":[{"nodes":[0],"name":"AuxScene"}],"scene":0,"nodes":[{"mesh":0}],"bufferViews":[{"buffer":0,"byteOffset":0,"byteLength":20040,"target":34962,"byteStride":12},{"buffer":0,"byteOffset":20040,"byteLength":20040,"target":34962,"byteStride":12},{"buffer":0,"byteOffset":40080,"byteLength":20040,"target":34962,"byteStride":12},{"buffer":0,"byteOffset":60120,"byteLength":11472,"target":34963}],"buffers":[{"byteLength":71592,"uri":"data:application/octet-stream;base64,"}],"accessors":[{"bufferView":0,"componentType":5126,"count":1670,"max":[0.25806450843811035,0.5,0.30645161867141724],"min":[-0.25806450843811035,-0.5,-0.30645161867141724],"type":"VEC3"},{"bufferView":1,"componentType":5126,"count":1670,"max":[1,1,1],"min":[-1,-1,-1],"type":"VEC3"},{"bufferView":2,"componentType":5126,"count":1670,"max":[1,1,1],"min":[0,0,0],"type":"VEC3"},{"bufferView":3,"componentType":5125,"count":2868,"max":[1669],"min":[0],"type":"SCALAR"}],"materials":[{"pbrMetallicRoughness":{"metallicFactor":1,"roughnessFactor":1}}],"meshes":[{"primitives":[{"mode":4,"attributes":{"POSITION":0,"NORMAL":1,"COLOR_0":2},"indices":3,"material":0}]}]}