{"asset":{"version":"2.0","generator":"THREE.GLTFExporter"},"scenes":[{"nodes":[0],"name":"AuxScene"}],"scene":0,"nodes":[{"mesh":0}],"bufferViews":[{"buffer":0,"byteOffset":0,"byteLength":10944,"target":34962,"byteStride":12},{"buffer":0,"byteOffset":10944,"byteLength":10944,"target":34962,"byteStride":12},{"buffer":0,"byteOffset":21888,"byteLength":10944,"target":34962,"byteStride":12},{"buffer":0,"byteOffset":32832,"byteLength":6528,"target":34963}],"buffers":[{"byteLength":39360,"uri":"data:application/octet-stream;base64,"}],"accessors":[{"bufferView":0,"componentType":5126,"count":912,"max":[0.2068965584039688,0.5,0.32758620381355286],"min":[-0.2068965584039688,-0.5,-0.32758620381355286],"type":"VEC3"},{"bufferView":1,"componentType":5126,"count":912,"max":[1,1,1],"min":[-1,-1,-1],"type":"VEC3"},{"bufferView":2,"componentType":5126,"count":912,"max":[1,1,1],"min":[0.019607843831181526,0.08627451211214066,0.08627451211214066],"type":"VEC3"},{"bufferView":3,"componentType":5125,"count":1632,"max":[911],"min":[0],"type":"SCALAR"}],"materials":[{"pbrMetallicRoughness":{"metallicFactor":1,"roughnessFactor":1}}],"meshes":[{"primitives":[{"mode":4,"attributes":{"POSITION":0,"NORMAL":1,"COLOR_0":2},"indices":3,"material":0}]}]}